PathFileType	4	(X/Y/Z)	E:\Marcel_BSc\Ayumi_22_01_2025\22-01-2025\static_00.trc
DataRate	CameraRate	NumFrames	NumMarkers	Units	OrigDataRate	OrigDataStartFrame	OrigNumFrames
200.0	200.0	4	59	mm	200.0	316	352	
Frame#	Time	FHD			LBHD			RBHD			RBAR			LBAR			RASI			RSACR			LSACR			LASI			USACR			C7			CLAV			T10			RSHO			LSHO			LTHI1			LTHI3			LTHI2			LLFC			LMFC			LTIB1			LTIB2			LTIB3			LMMAL			LLMAL			LHEE			LMT1			LMT5			LMT3			RTHI1			RTHI2			RTHI3			RLFC			RMFC			RTIB1			RTIB3			RTIB2			RLMAL			RMMAL			RHEE			RMT5			RMT1			RMT3			LMEP			LLEP			LDUPA			LMUPA			LUUPA			LUL			LRAD			LRFIN			RUL			RRAD			RUFIN			RMEP			RLEP			RMUPA			RDUPA			RUUPA			
		X1	Y1	Z1	X2	Y2	Z2	X3	Y3	Z3	X4	Y4	Z4	X5	Y5	Z5	X6	Y6	Z6	X7	Y7	Z7	X8	Y8	Z8	X9	Y9	Z9	X10	Y10	Z10	X11	Y11	Z11	X12	Y12	Z12	X13	Y13	Z13	X14	Y14	Z14	X15	Y15	Z15	X16	Y16	Z16	X17	Y17	Z17	X18	Y18	Z18	X19	Y19	Z19	X20	Y20	Z20	X21	Y21	Z21	X22	Y22	Z22	X23	Y23	Z23	X24	Y24	Z24	X25	Y25	Z25	X26	Y26	Z26	X27	Y27	Z27	X28	Y28	Z28	X29	Y29	Z29	X30	Y30	Z30	X31	Y31	Z31	X32	Y32	Z32	X33	Y33	Z33	X34	Y34	Z34	X35	Y35	Z35	X36	Y36	Z36	X37	Y37	Z37	X38	Y38	Z38	X39	Y39	Z39	X40	Y40	Z40	X41	Y41	Z41	X42	Y42	Z42	X43	Y43	Z43	X44	Y44	Z44	X45	Y45	Z45	X46	Y46	Z46	X47	Y47	Z47	X48	Y48	Z48	X49	Y49	Z49	X50	Y50	Z50	X51	Y51	Z51	X52	Y52	Z52	X53	Y53	Z53	X54	Y54	Z54	X55	Y55	Z55	X56	Y56	Z56	X57	Y57	Z57	X58	Y58	Z58	X59	Y59	Z59	
316	1.57	110.09169	1611.9713	-967.11249	128.27748	1594.8839	-906.74872	146.57112	1583.8986	-1037.7709				1041.0271	20.019011	-2031.6257	162.02028	927.47137	-1102.431	322.10733	958.76825	-1014.8284	319.18008	960.44598	-940.83405	148.50166	912.56036	-864.90143	314.26138	970.34546	-978.79175	298.37094	1400.9968	-963.12347	163.72209	1329.3192	-980.51453	320.06967	1117.2222	-972.96912	237.80118	1406.6304	-1111.8323	216.88522	1398.8651	-830.84875	236.53133	606.38275	-807.1618	261.19238	546.09662	-818.36981	210.5587	545.74365	-817.68573	229.36205	449.21332	-840.40979	241.86548	442.2355	-939.1062	256.34427	233.55051	-819.41327	306.61832	232.5208	-815.31384	279.91907	173.46127	-825.6217	284.27197	71.824066	-914.6651	297.8887	69.614906	-843.36096	340.99677	33.973427	-881.73132	143.87054	39.168968	-873.67407	169.43748	26.830515	-796.9729	144.84145	37.238243	-837.71442	257.34915	607.94611	-1156.2471	229.99922	548.63043	-1148.9865	281.19717	547.67908	-1146.818	240.01117	454.97333	-1125.1735	247.46954	449.30264	-1023.9984	271.26639	277.04703	-1159.5986	294.21759	215.41853	-1155.439	321.81454	275.27216	-1160.3853	307.5589	73.628082	-1134.8745	276.81445	75.589745	-1063.9216	351.577	28.462023	-1095.3055	178.76741	29.338989	-1179.4189	151.09802	37.721874	-1115.5243	156.16989	35.997501	-1148.2614	203.59016	1279.5977	-580.29077	254.62785	1330.7483	-562.95532	253.82668	1362.4553	-644.02765	283.3049	1322.6838	-639.62488	269.8316	1368.1921	-703.99744	233.69875	1336.0344	-326.1908	169.98918	1354.3175	-318.73615	181.49635	1350.9851	-244.46275	285.25876	1340.3772	-1610.9034	225.39297	1357.1754	-1612.3075	224.75566	1354.0847	-1686.04	265.37796	1278.2676	-1373.7629	304.96317	1337.8923	-1376.686	311.12305	1361.968	-1216.6946	314.36948	1350.1632	-1276.9435	329.1955	1316.6024	-1206.9325
317	1.575	110.13609	1612.0184	-967.07062	128.33589	1594.87	-906.74225	146.61539	1583.9045	-1037.7661				1041.0266	20.019304	-2031.6429	162.00818	927.474	-1102.3938	322.12051	958.74219	-1014.8178	319.19916	960.43573	-940.82123	148.48514	912.56946	-864.90472	314.28461	970.32544	-978.78516	298.41861	1400.9891	-963.12543	163.75484	1329.3264	-980.5166	320.05844	1117.2288	-972.96112	237.8606	1406.6073	-1111.8201	216.91875	1398.8494	-830.84686	236.51424	606.3725	-807.14868	261.19775	546.1059	-818.3645	210.54617	545.73651	-817.67145	229.35077	449.2034	-840.4115	241.87614	442.21527	-939.08246	256.35806	233.54214	-819.40759	306.58847	232.51566	-815.31329	279.92175	173.45642	-825.61884	284.26587	71.819397	-914.65527	297.87732	69.602127	-843.3667	340.991	33.969147	-881.71997	143.86179	39.150684	-873.68188	169.43047	26.829422	-796.97717	144.8403	37.229019	-837.73297	257.35754	607.92926	-1156.2383	229.99159	548.63855	-1148.965	281.19678	547.66583	-1146.8091	239.99437	454.98434	-1125.1611	247.47107	449.28662	-1023.9861	271.27499	277.03778	-1159.593	294.20862	215.40509	-1155.4227	321.797	275.22336	-1160.3358	307.55615	73.628151	-1134.8873	276.83038	75.596062	-1063.9264	351.5744	28.45442	-1095.3132	178.77759	29.325598	-1179.4358	151.09586	37.696789	-1115.5315	156.16913	35.995872	-1148.2637	203.62215	1279.5848	-580.28552	254.65164	1330.7358	-562.97156	253.8698	1362.4194	-644.04224	283.33807	1322.6632	-639.61926	269.86432	1368.1699	-703.98865	233.71556	1336.0557	-326.19296	169.98804	1354.3585	-318.73413	181.5231	1350.9968	-244.45845	285.3031	1340.3232	-1610.9059	225.43094	1357.1444	-1612.3304	224.8358	1353.9603	-1686.1011	265.37457	1278.2367	-1373.7697	304.99973	1337.8607	-1376.6962	311.17709	1361.6613	-1216.8112	314.39398	1350.1558	-1276.9319	329.21582	1316.5667	-1206.9403
318	1.58	110.22388	1612.014	-967.04944	128.38252	1594.9275	-906.72925	146.67737	1583.9152	-1037.7529				1040.9913	20.012957	-2031.5209	161.99944	927.46393	-1102.415	322.13007	958.73035	-1014.8	319.18445	960.43347	-940.81506	148.49739	912.55347	-864.90039	314.28662	970.31616	-978.78186	298.42999	1401.0095	-963.12531	163.77858	1329.3422	-980.52649	320.09497	1117.2246	-972.95801	237.91718	1406.5961	-1111.8363	216.96268	1398.8641	-830.85577	236.53522	606.39716	-807.13019	261.18448	546.08929	-818.35699	210.5452	545.74347	-817.6756	229.34482	449.20877	-840.40356	241.88306	442.21658	-939.08105	256.33746	233.53392	-819.41321	306.63126	232.50996	-815.31683	279.93027	173.43367	-825.60651	284.27994	71.824432	-914.64453	297.89026	69.598167	-843.3606	340.99719	33.963131	-881.75085	143.86349	39.162388	-873.68933	169.43423	26.834534	-796.98254	144.84732	37.223526	-837.72473	257.32361	607.9599	-1156.2007	229.98686	548.61157	-1148.9908	281.20609	547.65894	-1146.7892	239.99597	454.96515	-1125.1566	247.46451	449.27612	-1023.9717	271.25885	277.04779	-1159.5844	294.21332	215.39503	-1155.4235	322.04529	275.01193	-1160.3458	307.55588	73.628586	-1134.8816	276.81143	75.593338	-1063.9181	351.586	28.43644	-1095.3198	178.76393	29.35079	-1179.4062	151.10162	37.719128	-1115.5245	156.16893	36.009308	-1148.2659	203.62904	1279.5881	-580.2887	254.66397	1330.7213	-562.96185	253.89915	1362.4136	-644.03564	283.35919	1322.6508	-639.62506	269.90732	1368.1466	-703.98645	233.7281	1336.042	-326.20386	170.01778	1354.3418	-318.73004	181.52213	1351.0159	-244.47937	285.32904	1340.287	-1610.9108	225.48244	1357.1049	-1612.3501	224.86598	1353.922	-1686.1091	265.37927	1278.2161	-1373.7838	305.02521	1337.8322	-1376.7019	311.21335	1361.6211	-1216.823	314.39795	1350.2117	-1276.894	329.25705	1316.4902	-1206.9468
319	1.585	110.28996	1611.9668	-967.10022	128.40378	1594.9208	-906.75604	146.70764	1583.9207	-1037.7599				1040.9651	20.06225	-2031.5204	162.00487	927.44275	-1102.3861	322.27722	959.42462	-1014.5573	319.20511	960.40723	-940.82172	148.50568	912.57617	-864.86945	314.29099	970.26776	-978.75183	298.48856	1400.9703	-963.12506	163.81271	1329.3459	-980.52997	320.08194	1117.2416	-972.94153	237.97623	1406.5837	-1111.8394	217.00482	1398.8694	-830.85059	236.5302	606.39093	-807.11462	261.16544	546.06793	-818.32446	210.53369	545.7522	-817.6637	229.32771	449.20306	-840.3894	241.84734	442.23975	-939.09534	256.46558	233.62694	-818.66443	306.60077	232.50111	-815.32056	279.9061	173.43326	-825.60925	284.28995	71.830887	-914.65686	297.88797	69.60582	-843.36182	340.99704	33.964123	-881.72241	143.8557	39.173943	-873.68604	169.44205	26.823759	-796.98254	144.84224	37.234226	-837.72272	257.32196	607.96082	-1156.1865	229.96709	548.60815	-1148.9948	281.20569	547.64557	-1146.7894	239.98973	454.96829	-1125.1553	247.46721	449.27679	-1023.9659	271.26199	277.02197	-1159.5957	294.21362	215.40511	-1155.4204	322.05539	274.99414	-1160.3575	307.56046	73.62262	-1134.8837	276.81454	75.612816	-1063.9147	351.58267	28.432285	-1095.3242	178.76398	29.366894	-1179.4097	151.11037	37.705353	-1115.5409	156.17235	35.992443	-1148.2654	203.6722	1279.5698	-580.28473	254.69524	1330.7238	-562.96216	253.91551	1362.41	-644.05176	283.37836	1322.6516	-639.62531	269.91589	1368.1041	-704.00238	233.74333	1336.0408	-326.21176	170.02145	1354.3376	-318.75793	181.55403	1351.0193	-244.47093	285.35141	1340.2738	-1610.9166	225.52014	1357.0791	-1612.3715	224.91859	1353.8335	-1686.163	265.39511	1278.1893	-1373.7819	305.03763	1337.801	-1376.7115	311.25647	1361.578	-1216.8322	314.42819	1350.2119	-1276.8854	329.27759	1316.4664	-1206.9529
